<svg width="18" height="14" viewBox="0 0 18 14" fill="none" xmlns="http://www.w3.org/2000/svg">
<path d="M2.97461 11.2041H14.9512L14.7256 12.1064C14.5889 12.6715 14.3564 13.0954 14.0283 13.3779C13.7048 13.6605 13.2513 13.8018 12.668 13.8018H5.25781C4.66992 13.8018 4.21419 13.6582 3.89062 13.3711C3.56706 13.0885 3.33691 12.667 3.2002 12.1064L2.97461 11.2041ZM2.71484 10.124L1.45703 5.01074L2.3457 4.6416L5.3125 6.78125C5.41276 6.85417 5.49707 6.88151 5.56543 6.86328C5.63379 6.84505 5.69303 6.7972 5.74316 6.71973L8.68945 2.36523L9.23633 2.37207L12.1689 6.71973C12.2236 6.80632 12.2897 6.85872 12.3672 6.87695C12.4447 6.89062 12.5335 6.86328 12.6338 6.79492L15.6484 4.61426L16.4619 5.05176L15.2178 10.124H2.71484ZM1.73047 6.35059C1.41602 6.35059 1.12663 6.27311 0.862305 6.11816C0.602539 5.96322 0.392904 5.75586 0.233398 5.49609C0.0784505 5.23177 0.000976562 4.9401 0.000976562 4.62109C0.000976562 4.30664 0.0784505 4.01953 0.233398 3.75977C0.388346 3.5 0.595703 3.29264 0.855469 3.1377C1.11979 2.97819 1.41146 2.89844 1.73047 2.89844C2.04492 2.89844 2.33203 2.97819 2.5918 3.1377C2.85156 3.29264 3.05892 3.5 3.21387 3.75977C3.36882 4.01953 3.44629 4.30664 3.44629 4.62109C3.44629 4.9401 3.36882 5.23177 3.21387 5.49609C3.05892 5.75586 2.85156 5.96322 2.5918 6.11816C2.33203 6.27311 2.04492 6.35059 1.73047 6.35059ZM8.96289 3.44531C8.64388 3.44531 8.35221 3.36784 8.08789 3.21289C7.82812 3.05794 7.62077 2.85059 7.46582 2.59082C7.31087 2.3265 7.2334 2.03483 7.2334 1.71582C7.2334 1.40137 7.31087 1.11426 7.46582 0.854492C7.62077 0.594727 7.82812 0.38737 8.08789 0.232422C8.35221 0.077474 8.64388 0 8.96289 0C9.27734 0 9.56445 0.077474 9.82422 0.232422C10.0885 0.38737 10.2959 0.597005 10.4463 0.861328C10.6012 1.12109 10.6787 1.40592 10.6787 1.71582C10.6787 2.03483 10.6012 2.3265 10.4463 2.59082C10.2959 2.85059 10.0885 3.05794 9.82422 3.21289C9.56445 3.36784 9.27734 3.44531 8.96289 3.44531ZM16.1816 6.35059C15.8626 6.35059 15.5732 6.27311 15.3135 6.11816C15.0537 5.96322 14.8464 5.75586 14.6914 5.49609C14.541 5.23177 14.4658 4.9401 14.4658 4.62109C14.4658 4.30664 14.541 4.01953 14.6914 3.75977C14.8464 3.5 15.0537 3.29264 15.3135 3.1377C15.5732 2.97819 15.8626 2.89844 16.1816 2.89844C16.5007 2.89844 16.79 2.97819 17.0498 3.1377C17.3141 3.29264 17.5238 3.5 17.6787 3.75977C17.8337 4.01953 17.9111 4.30664 17.9111 4.62109C17.9111 4.9401 17.8314 5.23177 17.6719 5.49609C17.5169 5.75586 17.3073 5.96322 17.043 6.11816C16.7832 6.27311 16.4961 6.35059 16.1816 6.35059Z" fill="#00A19A"/>
</svg>
